<svg viewBox="0 0 660 400" role="img" aria-label="fellowship brief — scoped, credentialed, time-boxed" style="width:100%;height:auto;display:block;border-radius:12px;border:1px solid #232b39"><defs><style>@keyframes atPulse{0%,100%{opacity:.25}50%{opacity:1}}@keyframes atSlide{0%{transform:translateX(-8px)}50%{transform:translateX(0)}100%{transform:translateX(8px)}}@keyframes atBar{0%{width:6%}70%{width:82%}100%{width:82%}}@keyframes atBlink{50%{opacity:.35}}@keyframes atIn{from{opacity:0;transform:translateY(9px)}to{opacity:1;transform:none}}.p{animation:atPulse 2s infinite}.s{animation:atSlide 3.4s ease-in-out infinite alternate}.b{animation:atBar 6s ease-out infinite}.k{animation:atBlink 1.4s steps(2) infinite}.i{animation:atIn .7s cubic-bezier(.2,.8,.2,1) both}text{font-family:ui-sans-serif,system-ui,Segoe UI,Roboto,sans-serif}</style></defs><rect width="660" height="400" fill="#0e1219"/><rect width="660" height="30" fill="#151b25"/><circle cx="16" cy="15" r="4.5" fill="#ff5f6d"/><circle cx="32" cy="15" r="4.5" fill="#f5b13d"/><circle cx="48" cy="15" r="4.5" fill="#39d98a"/><text x="68" y="19" fill="#93a0b4" font-size="11">fellowship brief — scoped, credentialed, time-boxed</text><rect x="560" y="8" width="88" height="15" rx="7" fill="#8b7cff22" stroke="#8b7cff55"/><text x="604" y="19" fill="#8b7cff" font-size="9.5" text-anchor="middle" font-weight="700">ILLUSTRATIVE</text><g class="i"><rect x="16" y="42" width="300" height="170" rx="9" fill="#141a24" stroke="#232b39"/><text x="27" y="60" fill="#6d7c92" font-size="9.5" font-weight="700" letter-spacing="1">ENGAGEMENT</text></g><text x="28" y="72" fill="#e7ecf3" font-size="13" font-weight="700">Philosophy · reasoning audit</text><rect x="28" y="84" width="240" height="7" rx="3.5" fill="#242e3d" opacity="1"/><text x="28" y="110" fill="#6d7c92" font-size="10">TERM</text><text x="110" y="110" fill="#e7ecf3" font-size="10.5" font-family="ui-monospace,monospace">6 weeks · 12 hrs/wk</text><text x="28" y="130" fill="#6d7c92" font-size="10">RATE</text><text x="110" y="130" fill="#39d98a" font-size="10.5" font-family="ui-monospace,monospace">$120/hr · or $135/task</text><text x="28" y="150" fill="#6d7c92" font-size="10">IP</text><text x="110" y="150" fill="#f5b13d" font-size="10.5">output assigned to lab</text><text x="28" y="170" fill="#6d7c92" font-size="10">PAYOUT</text><text x="110" y="170" fill="#e7ecf3" font-size="10.5" font-family="ui-monospace,monospace">Deel · Wed weekly</text><g class="i"><rect x="16" y="224" width="300" height="160" rx="9" fill="#141a24" stroke="#232b39"/><text x="27" y="242" fill="#6d7c92" font-size="9.5" font-weight="700" letter-spacing="1">DELIVERABLES · 4 of 9</text></g><g class="i" style="animation-delay:0s"><rect x="28" y="248" width="13" height="13" rx="3.5" fill="#39d98a"/><path d="M31 254.5 l2.6 2.6 l4.4-5.2" stroke="#0b0d12" stroke-width="1.7" fill="none" stroke-linecap="round"/><text x="50" y="258.5" fill="#6d7c92" font-size="10.5" text-decoration="line-through">adjudicate 12 disputed items</text></g><g class="i" style="animation-delay:0.09s"><rect x="28" y="274" width="13" height="13" rx="3.5" fill="#39d98a"/><path d="M31 280.5 l2.6 2.6 l4.4-5.2" stroke="#0b0d12" stroke-width="1.7" fill="none" stroke-linecap="round"/><text x="50" y="284.5" fill="#6d7c92" font-size="10.5" text-decoration="line-through">rewrite 4 rubric anchors</text></g><g class="i" style="animation-delay:0.18s"><rect x="28" y="300" width="13" height="13" rx="3.5" fill="#39d98a"/><path d="M31 306.5 l2.6 2.6 l4.4-5.2" stroke="#0b0d12" stroke-width="1.7" fill="none" stroke-linecap="round"/><text x="50" y="310.5" fill="#6d7c92" font-size="10.5" text-decoration="line-through">flag 2 unsupported citations</text></g><g class="i" style="animation-delay:0.27s"><rect x="28" y="326" width="13" height="13" rx="3.5" fill="#39d98a"/><path d="M31 332.5 l2.6 2.6 l4.4-5.2" stroke="#0b0d12" stroke-width="1.7" fill="none" stroke-linecap="round"/><text x="50" y="336.5" fill="#6d7c92" font-size="10.5" text-decoration="line-through">write counterargument set</text></g><g class="i" style="animation-delay:0.36s"><rect x="28" y="352" width="13" height="13" rx="3.5" fill="#1d2532"/><text x="50" y="362.5" fill="#e7ecf3" font-size="10.5" text-decoration="none">ethics note (in review)</text></g><g class="i"><rect x="332" y="42" width="312" height="170" rx="9" fill="#141a24" stroke="#232b39"/><text x="343" y="60" fill="#6d7c92" font-size="9.5" font-weight="700" letter-spacing="1">REVIEW PANEL</text></g><text x="344" y="72" fill="#93a0b4" font-size="10.5">Two reviewers disagree. You are the tie-break.</text><rect x="344" y="84" width="288" height="7" rx="3.5" fill="#242e3d" opacity="1"/><rect x="344" y="97" width="240" height="7" rx="3.5" fill="#242e3d" opacity="1"/><g class="s"><rect x="344" y="112" width="140" height="60" rx="8" fill="#0e131c" stroke="#242e3d"/><text x="414" y="132" fill="#8b7cff" font-size="10" text-anchor="middle" font-weight="700">REVIEWER A</text><rect x="356" y="140" width="116" height="7" rx="3.5" fill="#212a37" opacity="1"/><rect x="356" y="152" width="92" height="7" rx="3.5" fill="#212a37" opacity="1"/></g><g class="s" style="animation-delay:.4s"><rect x="500" y="112" width="140" height="60" rx="8" fill="#0e131c" stroke="#242e3d"/><text x="570" y="132" fill="#ff5f6d" font-size="10" text-anchor="middle" font-weight="700">REVIEWER B</text><rect x="512" y="140" width="116" height="7" rx="3.5" fill="#212a37" opacity="1"/><rect x="512" y="152" width="92" height="7" rx="3.5" fill="#212a37" opacity="1"/></g><g class="i"><rect x="332" y="224" width="312" height="160" rx="9" fill="#141a24" stroke="#232b39"/><text x="343" y="242" fill="#6d7c92" font-size="9.5" font-weight="700" letter-spacing="1">STANDING</text></g><g class="i" style="animation-delay:0s"><circle cx="348" cy="258" r="4" fill="#39d98a"/><text x="362" y="262" fill="#93a0b4" font-size="11">credential verified · PhD, 2024</text></g><g class="i" style="animation-delay:0.1s"><circle cx="348" cy="288" r="4" fill="#39d98a"/><text x="362" y="292" fill="#93a0b4" font-size="11">agreement with consensus 94%</text></g><g class="i" style="animation-delay:0.2s"><circle cx="348" cy="318" r="4" fill="#39d98a"/><text x="362" y="322" fill="#93a0b4" font-size="11">1 late deliverable · noted</text></g><g class="i" style="animation-delay:0.30000000000000004s"><circle cx="348" cy="348" r="4" fill="#f5b13d"/><text x="362" y="352" fill="#93a0b4" font-size="11">eligibility: US work authorisation</text></g><rect x="344" y="348" width="288" height="24" rx="6" fill="#1a2130"/><text x="488" y="364" fill="#f5b13d" font-size="9.5" text-anchor="middle" class="p">engagement ends on schedule — the queue does not reopen</text></svg>
